Game of Thrones S01E01 DD5.1 720p ENG+NL Subs

Verenigde Staten ~ geschreven door George R.R. Martin ~ met Isaac Hempstead-Wright, Charles Dance, John Bradley, Ron Donachie, e.a.

Het is onmogelijk het gehele verhaal na te vertellen, maar het volstaat te zeggen dat de boeken zich afspelen in een tijd die veel weg heeft van de middeleeuwen en gaan over een bloederige machtsstrijd op het fictieve Westeros, waarbij familievetes, revoluties en epische veldslagen aan de orde van de dag zijn. De serie heeft een interessante cast met onder andere Sean Bean, Lena Headey en Peter Dinklage.

Bestandsformaat: .MKV
Bestandsgrootte: 1,45 GB
Taal: Engels in DD5.1
Ondertitelingen: Engels en Nederlands ~ custom door Pinkgaai (in te stellen)
Categorie : Serie
Formaat : NVT
Bron : HDTV
Menu: Nee
Extra's: Nee
Genre : Drama ~ Fantasie
Weblink :  http://www.imdb.com/title/tt0944947/

~~~~~~~~~~~~~~~~~~~~~~
USA / Canada ~ 60 minutes ~ written by George R.R. Martin ~ with Isaac Hempstead-Wright, Charles Dance, John Bradley, Ron Donachie and others.

Seven noble families fight for control of the mythical land of Westeros. Political and sexual intrigue abound. The primary families are the Stark, Lannister, and Baratheon families. Robert Baratheon, King of Westeros, asks his old friend Eddard Stark to serve as his chief advisor. Eddard, suspecting that his predecessor had been murdered, accepts so that he can investigate further. It turns out more than one family is plotting to take the throne. The Queen's family, the Lannisters, may be hatching a plot to take control. Across the sea, the last surviving members of the previously deposed ruling family, the Targaryens, are also plotting a return to power. The conflict between these families and others, including the Greyjoys, the Tullys, the Arryns, and the Tyrells, leads to war. Meanwhile, in the north, an ancient evil awakens. Amidst war and the political confusion, a brotherhood of misfits, The Night's Watch, is all that stands between the realms of men and the horrors beyond. 

File Format: .MKV
File size: 1.45 GB
Language: English in DD5.1
Subtitles: English and Dutch ~ custom (selectable)
Category : Series
Format : -
Source : HDTV
Menu: No
Extras: No
Genre : Drama ~ Fantasy
Weblink :  http://www.imdb.com/title/tt0944947/

Video and audio information:
~~~~~~~~~~~~~~~~~~~~~~
Video
ID                               : 2
Format                           : AVC
Format/Info                      : Advanced Video Codec
Format profile                   : High@L3.1
Format settings, CABAC           : Yes
Format settings, ReFrames        : 3 frames
Codec ID                         : V_MPEG4/ISO/AVC
Duration                         : 1h 1mn
Bit rate                         : 2 994 Kbps
Width                            : 1 280 pixels
Height                           : 720 pixels
Display aspect ratio             : 16:9
Frame rate                       : 23.976 fps
Color space                      : YUV
Chroma subsampling               : 4:2:0
Bit depth                        : 8 bits
Scan type                        : Progressive
Bits/(Pixel*Frame)               : 0.135
Stream size                      : 1.26 GiB (87%)
Writing library                  : x264 core 85 r1442tw
Encoding settings                : cabac=1 / ref=3 / deblock=1:0:0 / analyse=0x3:0x113 / me=hex / subme=6 / psy=1 / psy_rd=1.00:0.00 / mixed_ref=0 / me_range=16 / chroma_me=1 / trellis=1 / 8x8dct=1 / cqm=0 / deadzone=21,11 / fast_pskip=1 / chroma_qp_offset=-2 / threads=30 / sliced_threads=0 / nr=0 / decimate=1 / mbaff=0 / constrained_intra=0 / bframes=6 / b_pyramid=1 / b_adapt=1 / b_bias=0 / direct=1 / wpredb=1 / wpredp=0 / keyint=240 / keyint_min=24 / scenecut=40 / intra_refresh=0 / rc_lookahead=40 / rc=2pass / mbtree=1 / bitrate=2994 / ratetol=1.0 / qcomp=0.60 / qpmin=10 / qpmax=51 / qpstep=4 / cplxblur=20.0 / qblur=0.5 / ip_ratio=1.40 / aq=1:1.00
Language                         : English

Audio
ID                               : 1
Format                           : AC-3
Format/Info                      : Audio Coding 3
Mode extension                   : CM (complete main)
Codec ID                         : A_AC3
Duration                         : 1h 1mn
Bit rate mode                    : Constant
Bit rate                         : 384 Kbps
Channel(s)                       : 6 channels
Channel positions                : Front: L C R, Side: L R, LFE
Sampling rate                    : 48.0 KHz
Bit depth                        : 16 bits
Compression mode                 : Lossy
Stream size                      : 169 MiB (11%)

~~~~~~~~~~~~~~~
Hornigold TBS
~~~~~~~~~~~~~~~